<?xml version="1.0" standalone="no"?>
<!DOCTYPE svg PUBLIC "-//W3C//DTD SVG 20010904//EN"
 "http://www.w3.org/TR/2001/REC-SVG-20010904/DTD/svg10.dtd">
<svg version="1.0" xmlns="http://www.w3.org/2000/svg"
 width="512.000000pt" height="512.000000pt" viewBox="0 0 512.000000 512.000000"
 preserveAspectRatio="xMidYMid meet">

<g transform="translate(0.000000,512.000000) scale(0.100000,-0.100000)"
fill="#000000" stroke="none">
<path d="M3882 3981 c-117 -5 -135 -8 -148 -25 -12 -17 -14 -206 -14 -1257 l0
-1237 293 -7 c160 -4 310 -5 332 -3 l40 3 0 1242 0 1242 -23 23 c-21 22 -30
23 -185 24 -89 1 -222 -2 -295 -5z"/>
<path d="M2768 3459 c-17 -9 -18 -68 -18 -1004 l0 -995 320 0 320 0 0 980 0
981 -25 24 -24 25 -278 0 c-170 0 -285 -5 -295 -11z"/>
<path d="M2750 1217 l0 -74 984 -7 c592 -4 993 -3 1008 3 58 22 70 88 24 128
l-27 23 -995 0 -994 0 0 -73z"/>
</g>
</svg>
